6500c92bb8147ca1eb14ef41fbc4c220 *tests/data/fate/generic-tags-remux-mov.mp4
13392 tests/data/fate/generic-tags-remux-mov.mp4
#tb 0: 1/44100
#media_type 0: audio
#codec_id 0: ac3
#sample_rate 0: 44100
#channel_layout_name 0: mono
0,       -256,       -256,     1536,      416, 0x4e08b907, S=1, Skip Samples,       10, 0x00090001
0,       1280,       1280,     1536,      418, 0xe2bdb9cb
0,       2816,       2816,     1536,      418, 0x3a97c7c4
0,       4352,       4352,     1536,      418, 0x2775c40f
0,       5888,       5888,     1536,      418, 0xd12ac751
0,       7424,       7424,     1536,      418, 0xd97ac051
0,       8960,       8960,     1536,      418, 0x60f9bb7e
0,      10496,      10496,     1536,      418, 0x418dc89b
0,      12032,      12032,     1536,      418, 0xa905c386
0,      13568,      13568,     1536,      418, 0x6ab3c0e0
0,      15104,      15104,     1536,      418, 0x8c47c129
0,      16640,      16640,     1536,      418, 0x1f5ec5c9
0,      18176,      18176,     1536,      418, 0xc8decb76
0,      19712,      19712,     1536,      418, 0xd7fdc93a
0,      21248,      21248,     1536,      418, 0xf1bbc7ca
0,      22784,      22784,     1536,      418, 0x5d4bcd8d
0,      24320,      24320,     1536,      418, 0xd188c852
0,      25856,      25856,     1536,      418, 0xc6ecc548
0,      27392,      27392,     1536,      418, 0x5ca3cffb
0,      28928,      28928,     1536,      418, 0x9684bfed
0,      30464,      30464,     1536,      418, 0x9ec6ccfe
0,      32000,      32000,     1536,      418, 0x73a2c4cd
0,      33536,      33536,     1536,      418, 0x1738cc20
0,      35072,      35072,     1536,      418, 0x46bac7b8
0,      36608,      36608,     1536,      418, 0x5fe2b4ed
0,      38144,      38144,     1536,      418, 0x92c1c2fb
0,      39680,      39680,     1536,      418, 0xd01fc8b3
0,      41216,      41216,     1536,      418, 0x1f1fcd05
0,      42752,      42752,     1536,      418, 0xa35ecbab, S=1, Skip Samples,       10, 0x046800bc
[FORMAT]
TAG:major_brand=isom
TAG:minor_version=512
TAG:compatible_brands=isomdby1iso2mp41
TAG:title=Intro
TAG:artist=M83
TAG:album_artist=M83
TAG:composer=Anthony Gonzalez
TAG:album=Hurry Up, We're Dreaming
TAG:date=2011-10-17
TAG:comment=I love M83
TAG:genre=Electronic
TAG:copyright=2011 M83 Recording Inc
TAG:track=1/11
TAG:disc=1
TAG:disc_subtitle=Hurry Up
[/FORMAT]
